#!OML:ASF H:\Terrain\Walking\May29\JustinRory\rory.ASF
:FULLY-SPECIFIED
:DEGREES
1241
root 14.101 18.6475 17.0006 -177.74 7.95093 177.01
lowerback 1.07522 1.90475 -1.68002
upperback 1.093 2.58183 -1.49876
thorax 0.512635 1.30568 -0.609393
lowerneck -6.81174 -0.513844 -0.939577
upperneck 16.2196 0.316833 -1.83036
head 6.03334 0.20127 -0.374243
rclavicle 1.14053e-014 7.55382e-015
rhumerus -39.9285 16.5189 -89.6705
rradius 99.1568
rwrist 1.16506
rhand 11.3958 31.1462
rfingers 7.12502
rthumb 36.449 4.94128
lclavicle 1.14053e-014 7.55382e-015
lhumerus -40.588 -25.3521 93.7799
lradius 104.145
lwrist 4.71672
lhand -8.60965 23.9405
lfingers 7.12502
lthumb 17.3222 53.1886
rfemur -3.72242 7.69245 16.7668
rtibia 26.5038
rfoot -18.295 -18.0146
rtoes 10.825
lfemur -14.9986 -4.58569 -14.9823
ltibia 36.878
lfoot -10.977 -4.12854
ltoes -14.2395
1242
root 14.0548 18.6535 17.0149 -177.77 7.94726 177.294
lowerback 0.966632 1.91333 -1.48601
upperback 1.03651 2.58904 -1.3926
thorax 0.518961 1.30743 -0.606258
lowerneck -6.25038 -0.443496 -0.944588
upperneck 16.1991 0.410505 -1.68144
head 5.92963 0.273095 -0.318605
rclavicle -1.18215e-014 8.84592e-015
rhumerus -38.5735 15.8198 -89.1065
rradius 98.3414
rwrist 3.0218
rhand 13.5386 30.1173
rfingers 7.12502
rthumb 38.4743 4.44868
lclavicle -1.18215e-014 8.84592e-015
lhumerus -39.3728 -26.1804 93.9762
lradius 101.731
lwrist 2.48307
lhand -6.72534 22.8331
lfingers 7.12502
lthumb 19.135 51.9118
rfemur -3.79169 7.7722 16.9368
rtibia 26.6197
rfoot -18.0617 -18.0797
rtoes 10.0745
lfemur -14.3874 -5.10189 -14.7372
ltibia 35.9846
lfoot -11.2922 -3.71181
ltoes -18.1046
1243
root 14.0076 18.6608 17.0222 -177.692 7.95602 177.373
lowerback 0.523375 1.92494 -1.53761
upperback 1.03493 2.61158 -1.32934
thorax 0.760312 1.31531 -0.496102
lowerneck -5.91745 -0.445524 -0.934935
upperneck 16.4737 0.435399 -1.56931
head 5.95819 0.312053 -0.281459
rclavicle 1.94685e-014 2.18663e-014
rhumerus -36.9776 15.1936 -88.5826
rradius 97.4212
rwrist 4.66674
rhand 15.7397 29.315
rfingers 7.12502
rthumb 40.5475 4.25651
lclavicle 1.94685e-014 2.18663e-014
lhumerus -37.9261 -27.1739 94.2306
lradius 99.1215
lwrist 0.4224
lhand -6.02848 21.9925
lfingers 7.12502
lthumb 19.805 51.0034
rfemur -4.01485 7.63747 16.8087
rtibia 26.7372
rfoot -17.8121 -17.9741
rtoes 9.3784
lfemur -13.958 -5.61777 -14.7499
ltibia 34.9165
lfoot -11.7579 -3.69148
ltoes -18.684
1244
root 13.9517 18.6609 17.0198 -177.665 7.87212 177.163
lowerback -0.0858393 1.87641 -1.82385
upperback 1.08494 2.56457 -1.30052
thorax 1.13942 1.28641 -0.283362
lowerneck -5.63828 -0.38785 -1.03762
upperneck 16.8762 0.565436 -1.41658
head 6.03675 0.402054 -0.204955
rclavicle -1.758e-015 1.93815e-015
rhumerus -35.3556 14.6859 -88.1273
rradius 96.5064
rwrist 6.49633
rhand 16.998 28.9684
rfingers 7.12502
rthumb 41.7289 4.28823
lclavicle -1.758e-015 1.93815e-015
lhumerus -36.2994 -27.9484 94.5344
lradius 96.3156
lwrist -1.92312
lhand -7.91792 21.8884
lfingers 7.12502
lthumb 17.9878 51.0766
rfemur -4.19071 7.3886 16.3162
rtibia 26.8538
rfoot -17.7538 -17.8198
rtoes 9.37948
lfemur -13.4851 -6.21692 -15.1225
ltibia 33.8014
lfoot -11.9208 -3.61221
ltoes -16.1778
1245
root 13.888 18.6522 17.0155 -177.72 7.66277 177.098
lowerback -0.49765 1.86616 -1.68643
upperback 1.06651 2.56227 -1.39591
thorax 1.36177 1.2859 -0.442649
lowerneck -4.9864 -0.332038 -0.940573
upperneck 17.0305 0.633749 -1.12304
head 5.97128 0.487994 -0.122514
rclavicle -3.99992e-014 -1.2424e-015
rhumerus -33.8427 13.7562 -88.0242
rradius 95.6155
rwrist 8.64003
rhand 17.3657 28.2621
rfingers 7.12502
rthumb 42.0736 3.69676
lclavicle -3.99992e-014 -1.2424e-015
lhumerus -34.7948 -29.1076 94.9568
lradius 93.3425
lwrist -4.56551
lhand -12.0979 20.4616
lfingers 7.12502
lthumb 13.9626 49.9728
rfemur -4.22639 7.27974 16.0144
rtibia 27.0237
rfoot -17.7251 -17.8537
rtoes 9.04559
lfemur -12.9371 -6.80055 -15.3868
ltibia 32.7531
lfoot -12.1928 -3.27009
ltoes -16.1664
1246
root 13.8332 18.6467 17.0221 -177.788 7.56157 177.115
lowerback -0.881746 1.97916 -1.62363
upperback 1.07668 2.72402 -1.45086
thorax 1.59263 1.36641 -0.516053
lowerneck -3.99847 -0.391444 -0.902644
upperneck 16.8463 0.502197 -0.652874
head 5.74093 0.483071 0.00989734
rclavicle 1.25483e-014 6.36111e-015
rhumerus -32.2647 12.722 -87.9945
rradius 94.8679
rwrist 10.6393
rhand 17.7253 27.1606
rfingers 7.12502
rthumb 42.4105 2.70963
lclavicle 1.25483e-014 6.36111e-015
lhumerus -33.3964 -30.7969 95.7094
lradius 90.2768
lwrist -7.02497
lhand -7.73652 23.595
lfingers 7.12502
lthumb 18.1623 52.7671
rfemur -4.26121 7.2682 15.8471
rtibia 27.2292
rfoot -17.6997 -17.9336
rtoes 8.26391
lfemur -12.4888 -6.95468 -15.5398
ltibia 31.9141
lfoot -12.575 -3.12447
ltoes -17.0765
1247
root 13.795 18.6362 17.0597 -178.198 7.72824 176.935
lowerback -0.917669 2.11202 -2.38328
upperback 1.28938 2.91663 -1.1884
thorax 1.78001 1.44883 0.185734
lowerneck -2.96138 -0.380467 -1.18769
upperneck 16.5394 0.529873 -0.404813
head 5.46633 0.517298 0.134578
rclavicle 1.6392e-014 -2.0276e-014
rhumerus -30.327 12.3276 -87.6472
rradius 94.4024
rwrist 12.2244
rhand 18.2305 25.8014
rfingers 7.12502
rthumb 42.8832 1.51428
lclavicle 1.6392e-014 -2.0276e-014
lhumerus -31.4398 -32.3322 96.7376
lradius 86.9238
lwrist -9.39577
lhand -7.35899 25.2042
lfingers 7.12502
lthumb 18.5255 54.342
rfemur -4.0808 7.48997 15.5512
rtibia 27.4648
rfoot -17.8788 -17.9121
rtoes 8.21842
lfemur -11.7877 -6.44136 -15.8805
ltibia 31.3087
lfoot -12.5906 -3.51051
ltoes -16.7596
1248
root 13.7534 18.6305 17.0976 -178.55 7.83771 176.739
lowerback -1.22198 2.17842 -3.21019
upperback 1.6113 3.03592 -0.831031
thorax 2.21901 1.48468 1.03506
lowerneck -2.01816 -0.318085 -1.52317
upperneck 16.3457 0.663518 -0.316996
head 5.24464 0.592143 0.222932
rclavicle -8.14396e-015 -3.67752e-015
rhumerus -28.0085 12.3181 -87.3681
rradius 94.0677
rwrist 13.8534
rhand 18.5058 24.4466
rfingers 7.12502
rthumb 43.1407 0.250553
lclavicle -8.14396e-015 -3.67752e-015
lhumerus -28.8964 -34.0495 97.8508
lradius 83.1365
lwrist -10.9682
lhand -11.0669 25.521
lfingers 7.12502
lthumb 14.956 54.9609
rfemur -4.02901 7.6513 15.2146
rtibia 27.7397
rfoot -18.0057 -17.8587
rtoes 8.37822
lfemur -11.2298 -5.96529 -16.2602
ltibia 30.8527
lfoot -12.5565 -3.85388
ltoes -15.5488
1249
root 13.7037 18.6382 17.1248 -178.748 7.81706 176.76
lowerback -1.67061 2.1868 -3.43664
upperback 1.80004 3.07029 -0.606866
thorax 2.64102 1.48543 1.41641
lowerneck -0.812087 -0.249882 -1.76454
upperneck 16.1827 0.790183 -0.0895135
head 4.98824 0.687444 0.336772
rclavicle -1.81702e-014 6.65929e-015
rhumerus -25.855 12.5093 -87.5779
rradius 93.717
rwrist 16.1039
rhand 17.7081 24.1243
rfingers 7.12502
rthumb 42.3943 -0.332272
lclavicle -1.81702e-014 6.65929e-015
lhumerus -26.8037 -36.7412 99.033
lradius 79.3825
lwrist -10.1045
lhand -16.6297 25.2253
lfingers 7.12502
lthumb 9.59262 54.987
rfemur -4.12957 7.57041 15.0522
rtibia 28.0366
rfoot -17.9398 -17.7175
rtoes 8.65708
lfemur -10.8788 -5.63811 -16.4478
ltibia 30.4854
lfoot -12.8507 -3.75336
ltoes -14.941
1250
root 13.6448 18.6419 17.1406 -178.835 7.63094 176.88
lowerback -2.07518 2.15952 -3.29702
upperback 1.76965 3.03708 -0.499172
thorax 2.83996 1.4646 1.46507
lowerneck 0.759155 -0.13784 -1.78886
upperneck 15.604 0.988983 0.122431
head 5.07065 0.841843 0.439725
rclavicle 1.71576e-014 5.96354e-016
rhumerus -24.1188 13.0054 -88.1687
rradius 93.5687
rwrist 18.8848
rhand 15.4696 24.2261
rfingers 7.12502
rthumb 40.2935 -0.910765
lclavicle 1.71576e-014 5.96354e-016
lhumerus -24.4587 -38.5971 99.3144
lradius 75.8507
lwrist -14.2375
lhand -13.8987 25.4675
lfingers 7.12502
lthumb 12.2268 55.0901
rfemur -4.28181 7.5099 14.9604
rtibia 28.3491
rfoot -17.9789 -17.5239
rtoes 9.59677
lfemur -10.6916 -5.36428 -16.5891
ltibia 30.1484
lfoot -13.2729 -3.46622
ltoes -14.8245
1251
root 13.5759 18.6384 17.1544 -178.967 7.33721 176.766
lowerback -2.33452 2.22255 -3.27399
upperback 1.77883 3.13233 -0.53842
thorax 2.99439 1.50995 1.42785
lowerneck 1.65319 -0.140708 -1.34127
upperneck 15.913 1.08679 0.0908852
head 5.00858 0.963365 0.353186
rclavicle 2.23881e-014 -1.48095e-014
rhumerus -22.3341 13.9363 -89.0195
rradius 93.6601
rwrist 19.9579
rhand 12.3726 24.6469
rfingers 7.12502
rthumb 37.373 -1.32016
lclavicle 2.23881e-014 -1.48095e-014
lhumerus -22.0419 -41.1387 100.007
lradius 72.2191
lwrist -16.4318
lhand -13.9959 23.4347
lfingers 7.12502
lthumb 12.1331 53.0629
rfemur -4.37496 7.43109 14.5711
rtibia 28.6853
rfoot -18.0292 -17.2959
rtoes 10.4194
lfemur -10.5767 -5.20927 -17.0559
ltibia 29.8175
lfoot -13.5865 -3.25416
ltoes -14.1148
1252
root 13.5007 18.634 17.1691 -179.326 7.07634 176.151
lowerback -2.39881 2.169 -3.68579
upperback 1.9437 3.0981 -0.683381
thorax 3.19063 1.48409 1.51414
lowerneck 2.20583 -0.0578447 -1.09365
upperneck 16.2521 1.29766 0.0651381
head 5.02689 1.1203 0.310141
rclavicle -4.37326e-015 1.25234e-014
rhumerus -20.0348 15.4623 -89.832
rradius 93.8637
rwrist 20.7682
rhand 10.2261 25.3247
rfingers 7.12502
rthumb 35.3408 -1.15109
lclavicle -4.37326e-015 1.25234e-014
lhumerus -19.3317 -43.5408 100.616
lradius 68.8204
lwrist -17.4899
lhand -15.1565 22.2152
lfingers 7.12502
lthumb 11.0138 51.9063
rfemur -4.28331 7.42246 13.6132
rtibia 29.0473
rfoot -18.0857 -16.9982
rtoes 11.3945
lfemur -10.2798 -5.14644 -18.163
ltibia 29.5207
lfoot -13.7495 -2.80846
ltoes -12.8699
1253
root 13.4338 18.6319 17.1892 -179.724 6.93841 175.689
lowerback -2.25027 1.97939 -4.16514
upperback 2.07555 2.86389 -0.621878
thorax 3.23084 1.35552 1.83079
lowerneck 2.86978 0.156767 -1.35775
upperneck 16.5188 1.6766 0.185345
head 4.99283 1.33588 0.410312
rclavicle 2.49102e-014 -2.18663e-015
rhumerus -17.4284 17.9905 -90.441
rradius 93.9974
rwrist 20.9535
rhand 8.46759 26.4208
rfingers 7.12502
rthumb 33.6715 -0.435236
lclavicle 2.49102e-014 -2.18663e-015
lhumerus -16.4669 -45.4779 100.893
lradius 65.57
lwrist -18.4471
lhand -16.1079 21.9034
lfingers 7.12502
lthumb 10.096 51.6412
rfemur -4.18474 7.59165 12.8708
rtibia 29.4394
rfoot -18.0766 -16.7074
rtoes 12.4154
lfemur -9.87326 -4.81536 -19.0847
ltibia 29.2762
lfoot -13.8022 -2.16679
ltoes -12.4156
1254
root 13.3752 18.6367 17.2187 -179.939 6.85669 175.883
lowerback -1.99296 1.90958 -4.07752
upperback 2.00675 2.74012 -0.42244
thorax 3.01565 1.29662 1.96958
lowerneck 3.90966 0.197073 -1.2623
upperneck 16.7215 1.86509 0.0831696
head 4.86672 1.48226 0.359121
rclavicle 4.29623e-014 -1.11319e-014
rhumerus -15.0791 20.562 -90.8912
rradius 94.5124
rwrist 21.706
rhand 7.51502 26.4911
rfingers 7.12502
rthumb 32.7658 -0.558204
lclavicle 4.29623e-014 -1.11319e-014
lhumerus -13.9331 -48.0639 101.2
lradius 62.6554
lwrist -19.0365
lhand -17.2605 22.3428
lfingers 7.12502
lthumb 8.98394 52.1315
rfemur -4.29088 7.6469 12.8686
rtibia 29.8518
rfoot -17.8757 -16.4271
rtoes 12.2382
lfemur -9.6011 -4.29056 -19.1978
ltibia 29.0621
lfoot -14.0634 -1.76981
ltoes -13.2132
